<svg version="1.1" xmlns="http://www.w3.org/2000/svg" xmlns:xlink="http://www.w3.org/1999/xlink" x="0px" y="0px"
	viewBox="0 0 46 46" xml:space="preserve" focusable="false" aria-hidden="true">
<g>
	<defs>
		<path id="arrow_1" d="M17.9,15.2c-0.1-0.1-0.3-0.1-0.4-0.1c-0.1,0-0.3,0-0.4,0.1c-0.1,0.1-0.2,0.1-0.3,0.2l-6.5,6.5
			c-0.1,0.1-0.2,0.2-0.2,0.3c-0.1,0.1-0.1,0.3-0.1,0.4s0,0.3,0.1,0.4c0.1,0.1,0.1,0.2,0.2,0.3l6.5,6.5c0.2,0.2,0.5,0.3,0.7,0.3
			c0.3,0,0.5-0.1,0.7-0.3c0.2-0.2,0.3-0.5,0.3-0.7c0-0.3-0.1-0.5-0.3-0.7l-5.8-5.8l5.8-5.8c0.1-0.1,0.2-0.2,0.2-0.3
			c0.1-0.1,0.1-0.3,0.1-0.4c0-0.1,0-0.3-0.1-0.4c-0.1-0.1-0.1-0.2-0.2-0.3C18.2,15.4,18.1,15.3,17.9,15.2z"/>
	</defs>
	<use xlink:href="#arrow_1"  style="overflow:visible;fill-rule:evenodd;clip-rule:evenodd;fill:#1583FF;"/>
	<clipPath>
		<use xlink:href="#arrow_1"  style="overflow:visible;"/>
	</clipPath>
</g>
<g>
	<defs>
		<path id="arrow_2" d="M28.7,30.1c0.1,0.1,0.3,0.1,0.4,0.1s0.3,0,0.4-0.1
			c0.1-0.1,0.2-0.1,0.3-0.2l6.5-6.5c0.1-0.1,0.2-0.2,0.2-0.3c0.1-0.1,0.1-0.3,0.1-0.4c0-0.1,0-0.3-0.1-0.4c-0.1-0.1-0.1-0.2-0.2-0.3
			l-6.5-6.5c-0.2-0.2-0.5-0.3-0.7-0.3c-0.3,0-0.5,0.1-0.7,0.3c-0.2,0.2-0.3,0.5-0.3,0.7c0,0.3,0.1,0.5,0.3,0.7l5.8,5.8l-5.8,5.8
			c-0.1,0.1-0.2,0.2-0.2,0.3C28.1,28.9,28,29,28,29.1s0,0.3,0.1,0.4c0.1,0.1,0.1,0.2,0.2,0.3C28.4,30,28.5,30,28.7,30.1z"/>
	</defs>
	
		<use xlink:href="#arrow_2"  style="overflow:visible;fill-rule:evenodd;clip-rule:evenodd;fill:#1583FF;"/>
	<clipPath>
		<use xlink:href="#arrow_2"  style="overflow:visible;"/>
	</clipPath>
</g>
</svg>
